# xmcd
# 
# Track frame offsets:
#     150
#     24208
#     52398
#     76025
#     99498
#     130640
#     154470
#     176973
# 
# Disc length: 2688
# 
# Revision: 10
# Processed by: cddbd v1.5.2PL0 Copyright (c) Steve Scherf et al.
# Submitted via: BonkEnc v1.0.8
# 
DISCID=610a7e08
DTITLE=Steve Winwood - Roll With It
DYEAR=1988
DGENRE=Rock
TTITLE0=Roll With It
TTITLE1=Holding On
TTITLE2=The Morning Side
TTITLE3=Put On Your Dancing Shoes
TTITLE4=Don't You Know What The Night Can Do?
TTITLE5=Hearts On Fire
TTITLE6=One More Morning
TTITLE7=Shining Song
EXTD=
EXTT0=
EXTT1=
EXTT2=
EXTT3=
EXTT4=
EXTT5=
EXTT6=
EXTT7=
PLAYORDER=
